<svg width="19" height="26" viewBox="0 0 19 26" fill="none" xmlns="http://www.w3.org/2000/svg">
<g clip-path="url(#clip0_4_773)">
<path d="M7.94755 11.6274V20.7514L5.50635 21.2396L6.10139 24.2149L7.322 25.1684H8.10011L9.76318 25.3973L10.5413 25.0922L12.2044 24.52L12.7918 22.9561V21.6974L11.8382 21.3541L10.3887 21.0871V19.7902L10.5032 16.8531L10.1599 13.5728L10.5413 12.047L10.5032 11.6274H7.94755Z" fill="#3CB769"/>
<path d="M3.66058 7.32483C3.32492 7.32483 3.05029 7.59946 3.05029 7.93513C3.05029 8.2708 3.32492 8.54543 3.66058 8.54543C3.99625 8.54543 4.27089 8.2708 4.27089 7.93513C4.27089 7.59946 3.99625 7.32483 3.66058 7.32483Z" fill="black"/>
<path d="M5.00293 5.95936C5.90311 4.52515 7.45174 3.6631 9.15296 3.6631C9.48862 3.6631 9.76326 3.38847 9.76326 3.05281C9.76326 2.71714 9.48862 2.4425 9.15296 2.4425C7.02454 2.4425 5.08684 3.51816 3.97304 5.31854C3.79758 5.60844 3.8815 5.98224 4.17139 6.1577C4.45365 6.33317 4.82746 6.24925 5.00293 5.95936Z" fill="black"/>
<path d="M4.88097 22.9485C4.88097 24.6345 6.24652 26 7.93247 26H10.3737C12.0596 26 13.4252 24.6345 13.4252 22.9485V20.7362C13.4252 18.8442 14.1957 17.0286 15.607 15.6325C17.3463 13.9008 18.3076 11.6046 18.3076 9.15574C18.3076 4.05974 14.127 -0.0826633 8.99287 0.00125287C4.20965 0.085169 0.181671 4.03686 0.00620955 8.81245C-0.0853353 11.3452 0.837742 13.733 2.61524 15.5486C4.07996 17.0362 4.88097 18.8824 4.88097 20.7438V22.9485ZM12.2046 22.9485C12.2046 23.9555 11.3807 24.7794 10.3737 24.7794H7.93247C6.92548 24.7794 6.10157 23.9555 6.10157 22.9485V21.972H12.2046V22.9485ZM8.54277 20.7514V12.2072H9.76337V20.7514H8.54277ZM3.48492 14.6942C1.94391 13.1227 1.14289 11.0477 1.22681 8.85822C1.37938 4.71581 4.87335 1.29051 9.01575 1.22185C13.4404 1.14556 17.087 4.72344 17.087 9.15574C17.087 11.2765 16.2554 13.2676 14.7449 14.7705C13.1048 16.3954 12.2046 18.5162 12.2046 20.7438V20.7591H10.984V12.2072H11.5943C12.6013 12.2072 13.4252 11.3833 13.4252 10.3763C13.4252 9.36935 12.6013 8.54544 11.5943 8.54544C10.5873 8.54544 9.76337 9.36935 9.76337 10.3763C9.76337 10.5899 9.80151 10.7959 9.87017 10.9866H8.4436C8.51226 10.7959 8.5504 10.5899 8.5504 10.3763C8.5504 9.36935 7.72649 8.54544 6.7195 8.54544C5.71251 8.54544 4.8886 9.36935 4.8886 10.3763C4.8886 11.3833 5.71251 12.2072 6.7195 12.2072H7.3298V20.7514H6.10157V20.7438C6.10157 18.562 5.17087 16.4107 3.48492 14.6942ZM10.984 10.3763C10.984 10.0407 11.2586 9.76604 11.5943 9.76604C11.9299 9.76604 12.2046 10.0407 12.2046 10.3763C12.2046 10.712 11.9299 10.9866 11.5943 10.9866C11.2586 10.9866 10.984 10.712 10.984 10.3763ZM7.32217 10.3763C7.32217 10.712 7.04754 10.9866 6.71187 10.9866C6.37621 10.9866 6.10157 10.712 6.10157 10.3763C6.10157 10.0407 6.37621 9.76604 6.71187 9.76604C7.04754 9.76604 7.32217 10.0407 7.32217 10.3763Z" fill="black"/>
</g>
<defs>
<clipPath id="clip0_4_773">
<rect width="18.3076" height="26" fill="white"/>
</clipPath>
</defs>
</svg>
