<svg width="28" height="26" viewBox="0 0 28 26" fill="none" xmlns="http://www.w3.org/2000/svg">
<g clip-path="url(#clip0_4_763)">
<path d="M20.6772 15.4226L18.3569 23.9323L21.8168 25.2494L22.7244 24.5192L25.0446 25.2494L27.2284 18.7664L25.1333 17.2856L24.2735 16.2415L20.6772 15.4226Z" fill="#3CB769"/>
<path d="M7.30167 15.4226L9.62188 23.9323L6.16203 25.2494L5.25443 24.5192L2.93421 25.2494L0.750488 18.7664L2.8455 17.2856L3.70534 16.2415L7.30167 15.4226Z" fill="#3CB769"/>
<path d="M21.9599 18.2341C21.6665 18.159 21.373 18.3296 21.2911 18.6231C21.2161 18.9165 21.3867 19.21 21.6733 19.2919C21.9667 19.3669 22.2602 19.1963 22.342 18.9097C22.4239 18.6163 22.2533 18.316 21.9599 18.2341Z" fill="black"/>
<path d="M6.27139 19.2919C6.56483 19.2168 6.73543 18.9165 6.65354 18.6231C6.57848 18.3296 6.27821 18.159 5.98477 18.2341C5.69134 18.3092 5.52073 18.6094 5.59579 18.9029C5.68451 19.1963 5.98477 19.3669 6.27139 19.2919Z" fill="black"/>
<path d="M27.3237 17.5517C27.7332 16.2005 27.9379 14.9244 27.9379 13.6755C27.9379 10.0519 26.4571 6.61937 23.7752 4.0262C21.1547 1.50126 17.6471 0.0408936 13.9757 0.0408936C6.44866 0.0408936 0.0134851 6.12803 0.0134851 13.6755C0.0134851 14.9244 0.211385 16.2005 0.627658 17.5517C0.129496 17.9475 -0.116174 18.6162 0.05443 19.2645L1.46703 24.5328C1.69905 25.3994 2.59301 25.9249 3.47333 25.6929L5.14524 25.2425C5.5274 25.8021 6.23028 26.0818 6.91952 25.8976L9.02818 25.3312C9.90167 25.0992 10.4203 24.1984 10.1883 23.3249L8.20929 15.948C7.97726 15.0745 7.07648 14.5559 6.20299 14.7879L4.09433 15.3611C3.86913 15.4225 3.67123 15.5249 3.50062 15.6545C3.39144 15.1496 3.3232 14.6446 3.2959 14.1464C3.90325 13.9553 4.35364 13.4299 4.41506 12.7679C4.86545 8.1548 9.15102 4.40152 13.9689 4.40152C18.7867 4.40152 23.0723 8.1548 23.5227 12.7679C23.5841 13.423 24.0413 13.9553 24.6418 14.1464C24.6145 14.6446 24.5463 15.1496 24.4371 15.6545C24.2665 15.5181 24.0686 15.4157 23.8434 15.3611L21.7347 14.7947C20.8613 14.5627 19.9673 15.0813 19.7285 15.9548L17.7494 23.3317C17.5174 24.2052 18.0361 25.0992 18.9096 25.338L21.0182 25.9044C21.7006 26.0887 22.4035 25.8089 22.7925 25.2493L24.4644 25.6997C25.3447 25.9385 26.2387 25.4062 26.4707 24.5396L27.8833 19.2713C28.0676 18.6162 27.8219 17.9475 27.3237 17.5517ZM4.37412 16.412L6.48278 15.8456C6.77621 15.7706 7.06965 15.9412 7.15154 16.2346L9.13055 23.6115C9.20561 23.9049 9.03501 24.1984 8.74839 24.2803L8.22293 24.4236L7.23343 20.7385C7.15837 20.4451 6.8581 20.2745 6.56467 20.3496C6.27123 20.4246 6.10062 20.7249 6.17569 21.0183L7.16519 24.7034L6.63973 24.8467C6.34629 24.9217 6.05286 24.7511 5.97097 24.4577L3.99196 17.0808C3.91007 16.7874 4.08068 16.4871 4.37412 16.412ZM4.76992 24.212L3.18671 24.6351C2.89328 24.7102 2.59984 24.5396 2.51795 24.2461L1.10535 18.9779C1.03028 18.7049 1.18724 18.4115 1.45338 18.3228C1.46703 18.316 1.48068 18.316 1.4875 18.3091L3.04341 17.8929C3.21401 18.2887 2.92057 17.3811 4.76992 24.212ZM1.119 14.2215H2.21086C2.25863 15.0881 2.41559 15.9753 2.68855 16.8624L1.63763 17.1422C1.33737 16.1254 1.16677 15.1632 1.119 14.2215ZM24.6145 12.6656C24.0959 7.38367 19.3054 3.31648 13.9757 3.31648C8.64603 3.31648 3.84866 7.38367 3.33685 12.6656C3.30955 12.9249 3.07753 13.1296 2.80456 13.1296H1.119C1.42608 6.5716 7.18566 1.13276 13.9757 1.13276C20.7657 1.13276 26.5321 6.5716 26.8324 13.1296H25.1468C24.8807 13.1296 24.6418 12.9249 24.6145 12.6656ZM26.8324 14.2215C26.7846 15.1632 26.614 16.1254 26.3069 17.1422L25.256 16.8624C25.529 15.9753 25.6859 15.0881 25.7337 14.2215H26.8324ZM21.9872 24.4577C21.9122 24.7511 21.6119 24.9217 21.3185 24.8467L20.793 24.7034L21.7825 21.0183C21.8576 20.7249 21.687 20.4314 21.3935 20.3496C21.1001 20.2745 20.8067 20.4451 20.7248 20.7385L19.7353 24.4236L19.2098 24.2803C18.9164 24.2052 18.7458 23.9049 18.8208 23.6115L20.7998 16.2346C20.8681 15.9889 21.0865 15.832 21.3253 15.832C21.3731 15.832 21.4208 15.8388 21.4686 15.8524L23.5773 16.4188C23.8707 16.4939 24.0413 16.7942 23.9662 17.0876L21.9872 24.4577ZM26.846 18.9779L25.4334 24.2461C25.3584 24.5396 25.0581 24.7102 24.7647 24.6351L23.1815 24.212C25.0308 17.3811 24.7374 18.2955 24.8943 17.8929C26.5526 18.3364 26.4571 18.3091 26.4912 18.3228C26.7641 18.4183 26.9143 18.7049 26.846 18.9779Z" fill="black"/>
</g>
<defs>
<clipPath id="clip0_4_763">
<rect width="27.979" height="26" fill="white"/>
</clipPath>
</defs>
</svg>
