<svg width="34" height="23" viewBox="0 0 34 23" fill="none" xmlns="http://www.w3.org/2000/svg">
<g clip-path="url(#clip0_4_755)">
<path d="M9.1018 4.99414L7.41845 6.29636L6.64561 7.19627L4.95166 7.9903L5.11047 9.44073L6.59267 10.2348L8.05368 12.3839L9.34532 12.6169L10.5946 11.5582L11.1451 10.6053L12.6803 9.84304L12.9979 8.54082L11.7274 7.39741L10.8805 6.66691L10.5628 5.5235L10.0864 4.99414H9.1018Z" fill="#00C569"/>
<path d="M2.64388 22.2193C3.4485 22.4311 4.38017 22.3464 5.35418 21.9229C7.00577 21.2453 8.91145 19.8055 10.7748 18.0692C12.0876 16.7987 14.5438 16.1635 17 16.1635C19.4562 16.1635 21.9124 16.7987 23.2252 18.0692C25.0886 19.8055 26.9942 21.2453 28.6458 21.9229C29.6198 22.304 30.5515 22.4311 31.3561 22.2193C32.2031 21.9652 32.923 21.3724 33.3888 20.2713C33.8547 19.2126 34.0664 17.6457 33.9817 15.4436C33.897 13.4956 33.5582 11.3358 33.0501 9.30306C32.5419 7.35503 31.9067 5.53404 31.1444 4.13655C28.18 -1.07231 24.9615 -0.267692 21.1078 0.74867C19.8797 1.04511 18.5669 1.3839 17.2117 1.51094H16.7883C15.4331 1.3839 14.1203 1.04511 12.8922 0.74867C9.0385 -0.225343 5.82001 -1.07231 2.85562 4.17889C2.09335 5.57639 1.41577 7.39738 0.94994 9.3454C0.441759 11.3781 0.102972 13.5379 0.0182747 15.4859C-0.0664221 17.6457 0.14532 19.2126 0.611153 20.3137C1.07699 21.33 1.75456 21.9652 2.64388 22.2193ZM1.58517 15.5283C1.66986 13.7073 1.9663 11.6322 2.47448 9.68419C2.94032 7.86321 3.5332 6.16927 4.25312 4.89882C6.58228 0.706323 9.29258 1.3839 12.5111 2.23087C13.8239 2.56965 15.179 2.90844 16.6612 3.03549C16.7036 3.03549 16.7036 3.03549 16.7459 3.03549H17.2117C17.2541 3.03549 17.2541 3.03549 17.2964 3.03549C18.821 2.90844 20.1761 2.56965 21.4889 2.23087C24.7074 1.42625 27.4177 0.706322 29.7469 4.89882C30.4668 6.16927 31.0597 7.82086 31.5255 9.68419C31.9913 11.6322 32.3301 13.6649 32.4148 15.5283C32.4995 17.4763 32.3301 18.7891 31.949 19.6784C31.6949 20.2713 31.3561 20.6101 30.9326 20.7371C30.4668 20.8642 29.8739 20.7795 29.1963 20.5254C27.7142 19.9325 25.9779 18.6197 24.2839 17.0105C22.6747 15.4012 19.8373 14.5966 17 14.5966C14.1627 14.5966 11.3253 15.4012 9.67372 16.9258C7.93743 18.535 6.20115 19.8902 4.7613 20.4407C4.08372 20.6948 3.49085 20.8218 3.02501 20.6524C2.60153 20.5254 2.26274 20.1866 2.00865 19.5937C1.66986 18.7891 1.50047 17.4763 1.58517 15.5283Z" fill="black"/>
<path d="M6.66719 11.3781C6.70953 11.971 6.96363 12.5215 7.38711 12.9026C7.85294 13.3685 8.44582 13.6225 9.12339 13.6225C9.80098 13.6225 10.4362 13.3261 10.8597 12.9026C11.2408 12.4791 11.5373 11.971 11.5796 11.3781C12.1725 11.3357 12.723 11.0816 13.1042 10.6582C13.57 10.1923 13.8241 9.59945 13.8241 8.92188C13.8241 8.24429 13.5276 7.60907 13.1041 7.18558C12.6807 6.80444 12.1725 6.50801 11.5796 6.46566C11.5373 5.91513 11.2832 5.3646 10.902 4.98346L10.8597 4.94112C10.3939 4.47528 9.80098 4.22119 9.12339 4.22119C8.44582 4.22119 7.8106 4.51764 7.38711 4.94112C7.00597 5.32225 6.70953 5.87278 6.66719 6.46566C6.07431 6.50801 5.56612 6.7621 5.14265 7.14323L5.1003 7.18558C4.63446 7.65141 4.38037 8.24429 4.38037 8.92188C4.38037 9.59945 4.67682 10.2347 5.1003 10.6582C5.52378 11.0816 6.03196 11.3357 6.66719 11.3781ZM5.94727 8.92188C5.94727 8.66778 6.03196 8.45604 6.20136 8.28665C6.20136 8.28665 6.20136 8.28665 6.24371 8.2443C6.4131 8.11725 6.62484 8.03256 6.83658 8.03256H7.42946C7.85294 8.03256 8.23408 7.69377 8.23408 7.22793V6.63506C8.23408 6.38097 8.31878 6.16922 8.48817 5.99983C8.65757 5.83043 8.86931 5.74574 9.12339 5.74574C9.37749 5.74574 9.58923 5.83043 9.75862 5.99983C9.75862 5.99983 9.75862 5.99983 9.80098 6.04218C9.92802 6.21157 10.0127 6.42332 10.0127 6.63506V7.22793C10.0127 7.65141 10.3515 8.03256 10.8173 8.03256H11.4102C11.6643 8.03256 11.876 8.11725 12.0454 8.28665C12.2148 8.45604 12.2995 8.66778 12.2995 8.92188C12.2995 9.17596 12.2148 9.3877 12.0454 9.5571C11.876 9.72649 11.6643 9.81119 11.4102 9.81119H10.8173C10.3939 9.81119 10.0127 10.15 10.0127 10.6158V11.1663C10.0127 11.4204 9.92802 11.6322 9.75862 11.8016C9.58923 11.971 9.37749 12.0557 9.12339 12.0557C8.86931 12.0557 8.65757 11.971 8.48817 11.8016C8.31878 11.6322 8.23408 11.4204 8.23408 11.1663V10.5735C8.23408 10.15 7.89529 9.76884 7.42946 9.76884H6.83658C6.58249 9.76884 6.37075 9.68415 6.20136 9.51475C6.07431 9.3877 5.94727 9.17596 5.94727 8.92188Z" fill="black"/>
<circle cx="24.3684" cy="5.91518" r="1.4822" fill="black"/>
<circle cx="24.3684" cy="11.9286" r="1.4822" fill="black"/>
<circle cx="21.3621" cy="8.92189" r="1.4822" fill="black"/>
<circle cx="27.3753" cy="8.92189" r="1.4822" fill="black"/>
</g>
<defs>
<clipPath id="clip0_4_755">
<rect width="34" height="22.3309" fill="white"/>
</clipPath>
</defs>
</svg>
