<svg width="30" height="24" viewBox="0 0 30 24" fill="none" xmlns="http://www.w3.org/2000/svg">
<g clip-path="url(#clip0_4_779)">
<path d="M0.95116 9.58537L2.30482 12L2.74384 14.7073V18.0732V20.2317L3.14628 23.122L4.97555 23.3781C4.97555 23.3781 5.19506 21.1244 5.19506 21.0073C5.19506 20.8902 5.19506 17.3415 5.19506 17.3415L5.67067 15.0366L5.96336 12.9512L6.80482 12L4.0975 10.3537L1.64628 9.18293L0.438965 8.7439L0.95116 9.58537Z" fill="#3CB769"/>
<path d="M25.8149 21.5926C26.1368 21.5926 26.4002 21.3292 26.4002 21.0073C26.4002 20.6853 26.1368 20.4219 25.8149 20.4219C25.4929 20.4219 25.2295 20.6853 25.2295 21.0073C25.2295 21.3292 25.4929 21.5926 25.8149 21.5926Z" fill="black"/>
<path d="M0.0804764 8.72923C0.212184 9.39509 0.44633 10.017 0.760964 10.5878C1.79267 12.4463 2.28292 14.3707 2.28292 16.1195V23.3487C2.28292 23.6707 2.54633 23.9341 2.86828 23.9341H5.20974C5.5317 23.9341 5.79511 23.6707 5.79511 23.3487V16.8146C5.79511 15.4975 6.10243 14.1731 6.67316 12.9805L6.72438 12.8926C9.49755 15.1975 11.7146 18.139 13.1634 21.4317C13.8293 22.9463 15.3073 23.9268 16.9244 23.9268H21.7097C24.0219 23.9268 25.8366 23.8756 27.1902 23.6487C27.8634 23.5317 29.9049 23.1805 29.9049 21.5853C29.9049 20.6853 29.1585 19.3756 28.0024 18.2487C27.2268 17.4951 25.5951 16.178 23.3707 15.8487C23.1951 15.8268 23.0195 15.878 22.8951 15.9951C22.3171 16.5219 21.1756 16.9024 20.1878 16.9024C18.7829 16.9024 17.3049 16.1048 16.7341 15.0439C16.7195 15.0219 16.7122 15 16.6976 14.9853L12.7902 9.40972C10.3756 5.96338 7.49267 2.86826 4.21462 0.219476C4.00243 0.0438661 3.69511 0.0438661 3.48292 0.219476C2.56828 0.951183 1.80731 1.82191 1.21462 2.80972C0.0804764 4.71216 -0.285377 6.89265 0.0804764 8.7146C0.0804764 8.72192 0.0804764 8.72923 0.0804764 8.72923ZM4.62438 16.8146V22.7634H3.45365V16.1195C3.45365 15.9439 3.44633 15.7536 3.43901 15.5561C3.2634 12.3439 1.86584 10.2292 1.60243 9.65118C3.08779 10.339 4.49267 11.1805 5.80243 12.1683C5.17316 13.1926 4.62438 14.9853 4.62438 16.8146ZM2.22438 3.4024C2.6634 2.6707 3.21218 2.00484 3.85609 1.43411C6.89267 3.94387 9.57804 6.85606 11.839 10.0829L15.7244 15.6292C16.5 17.0487 18.3732 18.0805 20.1951 18.0805C21.3512 18.0805 22.639 17.6707 23.4585 17.0634C25.2293 17.4 26.5536 18.4756 27.1976 19.0975C28.2146 20.0853 28.7488 21.1024 28.7488 21.5926C28.7488 22.0975 27.8049 22.3609 27.0073 22.5C25.7341 22.7195 23.978 22.7634 21.7244 22.7634H16.939C15.7829 22.7634 14.7293 22.0609 14.2463 20.9707C11.7146 15.2048 7.02438 10.617 1.18536 8.18777C0.958525 6.7463 1.28048 4.98289 2.22438 3.4024Z" fill="black"/>
<path d="M16.9169 21.5926H23.473C23.795 21.5926 24.0584 21.3292 24.0584 21.0073C24.0584 20.6853 23.795 20.4219 23.473 20.4219H16.9169C16.595 20.4219 16.3315 20.6853 16.3315 21.0073C16.3315 21.3292 16.595 21.5926 16.9169 21.5926Z" fill="black"/>
</g>
<defs>
<clipPath id="clip0_4_779">
<rect width="29.9268" height="24" fill="white"/>
</clipPath>
</defs>
</svg>
