<svg width="20" height="20" viewBox="0 0 20 20" fill="none" xmlns="http://www.w3.org/2000/svg">
<path d="M17.3036 0H2.69642C1.20452 0 0 1.20452 0 2.69642V17.3036C0 18.7894 1.20452 19.9939 2.69642 19.9939H9.89911L9.91134 12.8462H8.05258C7.81412 12.8462 7.61846 12.6506 7.61235 12.4121L7.60624 10.107C7.60624 9.86243 7.8019 9.66677 8.04647 9.66677H9.89911V7.44115C9.89911 4.8609 11.4766 3.4546 13.7817 3.4546H15.671C15.9156 3.4546 16.1113 3.65026 16.1113 3.89483V5.83919C16.1113 6.08377 15.9156 6.27943 15.671 6.27943H14.5093C13.2559 6.27943 13.0113 6.87252 13.0113 7.74687V9.67288H15.7628C16.0257 9.67288 16.2275 9.89911 16.1969 10.162L15.9217 12.4671C15.8973 12.6873 15.7077 12.8523 15.4876 12.8523H13.0174L13.0174 19.9939H17.3036C18.7894 19.9939 20 18.7894 20 17.2975V2.69642C19.9939 1.20452 18.7894 0 17.3036 0Z" fill="#475993"/>
</svg>
