<svg width="20" height="20" viewBox="0 0 20 20" fill="none" xmlns="http://www.w3.org/2000/svg">
<g clip-path="url(#clip0_1_409)">
<path d="M17.311 3.6H10.671C10.031 3.6 9.59101 4.16 9.67101 4.76C9.75101 5.24 10.151 5.6 10.671 5.6H17.271C17.511 5.6 17.631 5.72 17.711 5.8C17.791 5.88 17.871 6.04 17.831 6.28L16.311 13.56C16.271 13.84 16.031 14.04 15.751 14.04H9.31101C9.03101 14.04 8.79101 13.84 8.75101 13.56L6.55101 0.8C6.47101 0.32 6.07101 0 5.59101 0H0.99101C0.35101 0 -0.12899 0.6 0.0310104 1.24C0.11101 1.72 0.59101 2 1.03101 2H4.75101L6.79101 13.88C6.99101 15.12 8.07101 16 9.31101 16H15.791C17.031 16 18.111 15.12 18.311 13.88L19.831 6.6C20.111 5.04 18.871 3.6 17.311 3.6Z" fill="#111111"/>
<path d="M14.5511 9.19995C15.1111 9.19995 15.5511 8.75995 15.5511 8.19995C15.5511 7.63995 15.1111 7.19995 14.5511 7.19995H11.3511C10.7911 7.19995 10.3511 7.63995 10.3511 8.19995C10.3511 8.75995 10.7911 9.19995 11.3511 9.19995H14.5511Z" fill="#111111"/>
<circle cx="9.75107" cy="18.6" r="1.4" fill="#00C569"/>
<circle cx="15.3512" cy="18.6" r="1.4" fill="#00C569"/>
<path d="M14.751 11.3999C14.751 10.8399 14.311 10.3999 13.751 10.3999H11.751C11.191 10.3999 10.751 10.8399 10.751 11.3999C10.751 11.9599 11.191 12.3999 11.751 12.3999H13.751C14.311 12.3999 14.751 11.9599 14.751 11.3999Z" fill="#00C569"/>
</g>
<defs>
<clipPath id="clip0_1_409">
<rect width="19.8707" height="20" fill="white"/>
</clipPath>
</defs>
</svg>
