<svg width="17" height="20" viewBox="0 0 17 20" fill="none" xmlns="http://www.w3.org/2000/svg">
<g clip-path="url(#clip0_1_417)">
<path d="M4.91817 0.00679855C2.28016 0.126708 0.0818193 2.36502 0.00187973 5.00302C-0.0380901 6.56185 0.561457 7.96079 1.60067 8.92006C2.16025 9.43967 3.03958 9.15988 3.23943 8.44043C3.31937 8.0807 3.23943 7.72097 2.99961 7.48115C2.3601 6.92157 2.00037 6.08221 2.00037 5.1629C2.04034 3.52414 3.35934 2.1252 4.9981 2.00529C6.47699 1.92535 7.75602 2.84465 8.19569 4.12369C8.3156 4.44345 8.59539 4.68327 8.91514 4.76321H8.99508C9.71454 4.88311 10.3141 4.16366 10.0743 3.4442C9.35481 1.36577 7.31635 -0.113111 4.91817 0.00679855Z" fill="#00C569"/>
<path d="M16.1897 10.399L5.71756 4.28364C5.35783 4.04382 4.91817 4.12376 4.59841 4.32361C4.27865 4.52346 4.0788 4.92315 4.15874 5.32285L5.7975 17.3538C5.91741 18.1532 6.79675 18.5129 7.39629 18.0732C7.47623 18.0333 7.5162 17.9933 7.59614 17.9133L10.474 14.8756L13.5916 19.5521C13.9114 19.9918 14.5109 20.1516 14.9906 19.8319C15.4302 19.5121 15.5901 18.9126 15.2703 18.4329L12.1527 13.7964L16.0298 12.2776C16.1097 12.2376 16.1897 12.1977 16.2296 12.1577C16.8691 11.758 16.8691 10.7987 16.1897 10.399ZM13.112 11.2784L10.7138 12.1977C10.5139 12.2776 10.3141 12.3975 10.1142 12.5174C9.91439 12.6373 9.75451 12.7972 9.59463 12.9571L7.79599 14.8357C7.67608 14.9556 7.47623 14.8756 7.43627 14.7158L6.43702 7.40128C6.39705 7.2414 6.5969 7.12149 6.75678 7.20143L13.112 10.9186C13.2719 10.9986 13.2719 11.2384 13.112 11.2784Z" fill="#111111"/>
</g>
<defs>
<clipPath id="clip0_1_417">
<rect width="16.7044" height="20" fill="white"/>
</clipPath>
</defs>
</svg>
