<svg width="20" height="20" viewBox="0 0 20 20" fill="none" xmlns="http://www.w3.org/2000/svg">
<path d="M19.8047 8.041H19V8H10V12H15.6523C14.8262 14.3282 12.6114 16 10 16C6.68555 16 4 13.3145 4 10C4 6.68555 6.68555 4 10 4C11.5293 4 12.9219 4.57615 13.9805 5.51955L16.8086 2.69141C15.0235 1.02735 12.6348 0 10 0C4.47655 0 0 4.47655 0 10C0 15.5235 4.47655 20 10 20C15.5235 20 20 15.5235 20 10C20 9.3301 19.9317 8.6758 19.8047 8.041Z" fill="#FFC107"/>
<path d="M1.15234 5.3457L4.43945 7.75585C5.32815 5.5547 7.48045 4 10 4C11.5293 4 12.9219 4.57615 13.9804 5.51955L16.8086 2.69141C15.0234 1.02735 12.6347 0 10 0C6.1582 0 2.82812 2.16797 1.15234 5.3457Z" fill="#FF3D00"/>
<path d="M10 20C12.5821 20 14.9297 19.0117 16.7051 17.4043L13.6094 14.7851C12.6055 15.5449 11.3574 16 10 16C7.39845 16 5.1914 14.3418 4.3594 12.0273L1.09766 14.539C2.75196 17.7773 6.1133 20 10 20Z" fill="#4CAF50"/>
<path d="M19.8047 8.041H19V8H10V12H15.6523C15.2558 13.1192 14.5352 14.0821 13.6074 14.7852C13.6094 14.7852 13.6094 14.7852 13.6094 14.7852L16.7051 17.4043C16.4863 17.6015 20 15 20 10C20 9.3301 19.9317 8.6758 19.8047 8.041Z" fill="#1976D2"/>
</svg>
